<mxfile host="app.diagrams.net" modified="2024-02-06T09:34:13.850Z" agent="Mozilla/5.0 (Windows NT 10.0; Win64; x64) AppleWebKit/537.36 (KHTML, like Gecko) Chrome/121.0.0.0 Safari/537.36" etag="ogLgIwPYLns492E-3gLX" version="23.1.1" type="device">
  <diagram name="Страница — 1" id="Pn02A32nqaSbkwbhJP6s">
    <mxGraphModel dx="1235" dy="624" grid="1" gridSize="10" guides="1" tooltips="1" connect="1" arrows="1" fold="1" page="1" pageScale="1" pageWidth="827" pageHeight="1169" math="0" shadow="0">
      <root>
        <mxCell id="0" />
        <mxCell id="1" parent="0" />
        <mxCell id="iJSi-uQUxxu9UWR6ey4F-27" value="Тест" style="swimlane;fontStyle=0;childLayout=stackLayout;horizontal=1;startSize=26;fillColor=none;horizontalStack=0;resizeParent=1;resizeParentMax=0;resizeLast=0;collapsible=1;marginBottom=0;whiteSpace=wrap;html=1;" parent="1" vertex="1">
          <mxGeometry x="51" y="240" width="165" height="130" as="geometry" />
        </mxCell>
        <mxCell id="iJSi-uQUxxu9UWR6ey4F-28" value="+ ID (PK)" style="text;strokeColor=none;fillColor=none;align=left;verticalAlign=top;spacingLeft=4;spacingRight=4;overflow=hidden;rotatable=0;points=[[0,0.5],[1,0.5]];portConstraint=eastwest;whiteSpace=wrap;html=1;" parent="iJSi-uQUxxu9UWR6ey4F-27" vertex="1">
          <mxGeometry y="26" width="165" height="26" as="geometry" />
        </mxCell>
        <mxCell id="iJSi-uQUxxu9UWR6ey4F-29" value="+ Название" style="text;strokeColor=none;fillColor=none;align=left;verticalAlign=top;spacingLeft=4;spacingRight=4;overflow=hidden;rotatable=0;points=[[0,0.5],[1,0.5]];portConstraint=eastwest;whiteSpace=wrap;html=1;" parent="iJSi-uQUxxu9UWR6ey4F-27" vertex="1">
          <mxGeometry y="52" width="165" height="26" as="geometry" />
        </mxCell>
        <mxCell id="iJSi-uQUxxu9UWR6ey4F-30" value="+ Описание" style="text;strokeColor=none;fillColor=none;align=left;verticalAlign=top;spacingLeft=4;spacingRight=4;overflow=hidden;rotatable=0;points=[[0,0.5],[1,0.5]];portConstraint=eastwest;whiteSpace=wrap;html=1;" parent="iJSi-uQUxxu9UWR6ey4F-27" vertex="1">
          <mxGeometry y="78" width="165" height="26" as="geometry" />
        </mxCell>
        <mxCell id="iJSi-uQUxxu9UWR6ey4F-31" value="+ Предмет" style="text;strokeColor=none;fillColor=none;align=left;verticalAlign=top;spacingLeft=4;spacingRight=4;overflow=hidden;rotatable=0;points=[[0,0.5],[1,0.5]];portConstraint=eastwest;whiteSpace=wrap;html=1;" parent="iJSi-uQUxxu9UWR6ey4F-27" vertex="1">
          <mxGeometry y="104" width="165" height="26" as="geometry" />
        </mxCell>
        <mxCell id="iJSi-uQUxxu9UWR6ey4F-32" value="Вопрос" style="swimlane;fontStyle=0;childLayout=stackLayout;horizontal=1;startSize=26;fillColor=none;horizontalStack=0;resizeParent=1;resizeParentMax=0;resizeLast=0;collapsible=1;marginBottom=0;whiteSpace=wrap;html=1;" parent="1" vertex="1">
          <mxGeometry x="341" y="240" width="215" height="130" as="geometry" />
        </mxCell>
        <mxCell id="iJSi-uQUxxu9UWR6ey4F-33" value="+ ID (PK)" style="text;strokeColor=none;fillColor=none;align=left;verticalAlign=top;spacingLeft=4;spacingRight=4;overflow=hidden;rotatable=0;points=[[0,0.5],[1,0.5]];portConstraint=eastwest;whiteSpace=wrap;html=1;" parent="iJSi-uQUxxu9UWR6ey4F-32" vertex="1">
          <mxGeometry y="26" width="215" height="26" as="geometry" />
        </mxCell>
        <mxCell id="iJSi-uQUxxu9UWR6ey4F-36" value="+ ID теста (FK)" style="text;strokeColor=none;fillColor=none;align=left;verticalAlign=top;spacingLeft=4;spacingRight=4;overflow=hidden;rotatable=0;points=[[0,0.5],[1,0.5]];portConstraint=eastwest;whiteSpace=wrap;html=1;" parent="iJSi-uQUxxu9UWR6ey4F-32" vertex="1">
          <mxGeometry y="52" width="215" height="26" as="geometry" />
        </mxCell>
        <mxCell id="iJSi-uQUxxu9UWR6ey4F-34" value="+ Текст" style="text;strokeColor=none;fillColor=none;align=left;verticalAlign=top;spacingLeft=4;spacingRight=4;overflow=hidden;rotatable=0;points=[[0,0.5],[1,0.5]];portConstraint=eastwest;whiteSpace=wrap;html=1;" parent="iJSi-uQUxxu9UWR6ey4F-32" vertex="1">
          <mxGeometry y="78" width="215" height="26" as="geometry" />
        </mxCell>
        <mxCell id="iJSi-uQUxxu9UWR6ey4F-35" value="+ Варианты_ответов" style="text;strokeColor=none;fillColor=none;align=left;verticalAlign=top;spacingLeft=4;spacingRight=4;overflow=hidden;rotatable=0;points=[[0,0.5],[1,0.5]];portConstraint=eastwest;whiteSpace=wrap;html=1;" parent="iJSi-uQUxxu9UWR6ey4F-32" vertex="1">
          <mxGeometry y="104" width="215" height="26" as="geometry" />
        </mxCell>
        <mxCell id="iJSi-uQUxxu9UWR6ey4F-37" value="Ответ" style="swimlane;fontStyle=0;childLayout=stackLayout;horizontal=1;startSize=26;fillColor=none;horizontalStack=0;resizeParent=1;resizeParentMax=0;resizeLast=0;collapsible=1;marginBottom=0;whiteSpace=wrap;html=1;" parent="1" vertex="1">
          <mxGeometry x="622" y="360" width="155" height="128" as="geometry" />
        </mxCell>
        <mxCell id="iJSi-uQUxxu9UWR6ey4F-38" value="+ ID (PK)" style="text;strokeColor=none;fillColor=none;align=left;verticalAlign=top;spacingLeft=4;spacingRight=4;overflow=hidden;rotatable=0;points=[[0,0.5],[1,0.5]];portConstraint=eastwest;whiteSpace=wrap;html=1;" parent="iJSi-uQUxxu9UWR6ey4F-37" vertex="1">
          <mxGeometry y="26" width="155" height="26" as="geometry" />
        </mxCell>
        <mxCell id="iJSi-uQUxxu9UWR6ey4F-41" value="+ ID вопроса (FK)" style="text;strokeColor=none;fillColor=none;align=left;verticalAlign=top;spacingLeft=4;spacingRight=4;overflow=hidden;rotatable=0;points=[[0,0.5],[1,0.5]];portConstraint=eastwest;whiteSpace=wrap;html=1;" parent="iJSi-uQUxxu9UWR6ey4F-37" vertex="1">
          <mxGeometry y="52" width="155" height="26" as="geometry" />
        </mxCell>
        <mxCell id="iJSi-uQUxxu9UWR6ey4F-39" value="+ Текст" style="text;strokeColor=none;fillColor=none;align=left;verticalAlign=top;spacingLeft=4;spacingRight=4;overflow=hidden;rotatable=0;points=[[0,0.5],[1,0.5]];portConstraint=eastwest;whiteSpace=wrap;html=1;" parent="iJSi-uQUxxu9UWR6ey4F-37" vertex="1">
          <mxGeometry y="78" width="155" height="26" as="geometry" />
        </mxCell>
        <mxCell id="iJSi-uQUxxu9UWR6ey4F-40" value="+ Итог" style="text;strokeColor=none;fillColor=none;align=left;verticalAlign=top;spacingLeft=4;spacingRight=4;overflow=hidden;rotatable=0;points=[[0,0.5],[1,0.5]];portConstraint=eastwest;whiteSpace=wrap;html=1;" parent="iJSi-uQUxxu9UWR6ey4F-37" vertex="1">
          <mxGeometry y="104" width="155" height="24" as="geometry" />
        </mxCell>
        <mxCell id="iJSi-uQUxxu9UWR6ey4F-42" value="Пользователь" style="swimlane;fontStyle=0;childLayout=stackLayout;horizontal=1;startSize=26;fillColor=none;horizontalStack=0;resizeParent=1;resizeParentMax=0;resizeLast=0;collapsible=1;marginBottom=0;whiteSpace=wrap;html=1;" parent="1" vertex="1">
          <mxGeometry x="51" y="430" width="155" height="130" as="geometry" />
        </mxCell>
        <mxCell id="iJSi-uQUxxu9UWR6ey4F-43" value="+ ID (PK)" style="text;strokeColor=none;fillColor=none;align=left;verticalAlign=top;spacingLeft=4;spacingRight=4;overflow=hidden;rotatable=0;points=[[0,0.5],[1,0.5]];portConstraint=eastwest;whiteSpace=wrap;html=1;" parent="iJSi-uQUxxu9UWR6ey4F-42" vertex="1">
          <mxGeometry y="26" width="155" height="26" as="geometry" />
        </mxCell>
        <mxCell id="iJSi-uQUxxu9UWR6ey4F-44" value="+ Имя" style="text;strokeColor=none;fillColor=none;align=left;verticalAlign=top;spacingLeft=4;spacingRight=4;overflow=hidden;rotatable=0;points=[[0,0.5],[1,0.5]];portConstraint=eastwest;whiteSpace=wrap;html=1;" parent="iJSi-uQUxxu9UWR6ey4F-42" vertex="1">
          <mxGeometry y="52" width="155" height="26" as="geometry" />
        </mxCell>
        <mxCell id="iJSi-uQUxxu9UWR6ey4F-45" value="+ Роль: varchar2(50)" style="text;strokeColor=none;fillColor=none;align=left;verticalAlign=top;spacingLeft=4;spacingRight=4;overflow=hidden;rotatable=0;points=[[0,0.5],[1,0.5]];portConstraint=eastwest;whiteSpace=wrap;html=1;" parent="iJSi-uQUxxu9UWR6ey4F-42" vertex="1">
          <mxGeometry y="78" width="155" height="26" as="geometry" />
        </mxCell>
        <mxCell id="iJSi-uQUxxu9UWR6ey4F-46" value="+ Данные: varchar2(255)" style="text;strokeColor=none;fillColor=none;align=left;verticalAlign=top;spacingLeft=4;spacingRight=4;overflow=hidden;rotatable=0;points=[[0,0.5],[1,0.5]];portConstraint=eastwest;whiteSpace=wrap;html=1;" parent="iJSi-uQUxxu9UWR6ey4F-42" vertex="1">
          <mxGeometry y="104" width="155" height="26" as="geometry" />
        </mxCell>
        <mxCell id="iJSi-uQUxxu9UWR6ey4F-47" value="Результат теста" style="swimlane;fontStyle=0;childLayout=stackLayout;horizontal=1;startSize=26;fillColor=none;horizontalStack=0;resizeParent=1;resizeParentMax=0;resizeLast=0;collapsible=1;marginBottom=0;whiteSpace=wrap;html=1;" parent="1" vertex="1">
          <mxGeometry x="331" y="430" width="195" height="130" as="geometry" />
        </mxCell>
        <mxCell id="iJSi-uQUxxu9UWR6ey4F-48" value="+ ID пользователя (PK, FK)" style="text;strokeColor=none;fillColor=none;align=left;verticalAlign=top;spacingLeft=4;spacingRight=4;overflow=hidden;rotatable=0;points=[[0,0.5],[1,0.5]];portConstraint=eastwest;whiteSpace=wrap;html=1;" parent="iJSi-uQUxxu9UWR6ey4F-47" vertex="1">
          <mxGeometry y="26" width="195" height="26" as="geometry" />
        </mxCell>
        <mxCell id="iJSi-uQUxxu9UWR6ey4F-49" value="+ ID теста (PK, FK)" style="text;strokeColor=none;fillColor=none;align=left;verticalAlign=top;spacingLeft=4;spacingRight=4;overflow=hidden;rotatable=0;points=[[0,0.5],[1,0.5]];portConstraint=eastwest;whiteSpace=wrap;html=1;strokeWidth=1;" parent="iJSi-uQUxxu9UWR6ey4F-47" vertex="1">
          <mxGeometry y="52" width="195" height="26" as="geometry" />
        </mxCell>
        <mxCell id="iJSi-uQUxxu9UWR6ey4F-50" value="+ Дата и время" style="text;strokeColor=none;fillColor=none;align=left;verticalAlign=top;spacingLeft=4;spacingRight=4;overflow=hidden;rotatable=0;points=[[0,0.5],[1,0.5]];portConstraint=eastwest;whiteSpace=wrap;html=1;" parent="iJSi-uQUxxu9UWR6ey4F-47" vertex="1">
          <mxGeometry y="78" width="195" height="26" as="geometry" />
        </mxCell>
        <mxCell id="iJSi-uQUxxu9UWR6ey4F-51" value="+ Итоговый балл" style="text;strokeColor=none;fillColor=none;align=left;verticalAlign=top;spacingLeft=4;spacingRight=4;overflow=hidden;rotatable=0;points=[[0,0.5],[1,0.5]];portConstraint=eastwest;whiteSpace=wrap;html=1;" parent="iJSi-uQUxxu9UWR6ey4F-47" vertex="1">
          <mxGeometry y="104" width="195" height="26" as="geometry" />
        </mxCell>
        <mxCell id="iJSi-uQUxxu9UWR6ey4F-52" value="" style="edgeStyle=entityRelationEdgeStyle;fontSize=12;html=1;endArrow=ERoneToMany;rounded=0;exitX=1;exitY=0.5;exitDx=0;exitDy=0;entryX=0;entryY=0.5;entryDx=0;entryDy=0;" parent="1" source="iJSi-uQUxxu9UWR6ey4F-28" target="iJSi-uQUxxu9UWR6ey4F-36" edge="1">
          <mxGeometry width="100" height="100" relative="1" as="geometry">
            <mxPoint x="51" y="640" as="sourcePoint" />
            <mxPoint x="151" y="540" as="targetPoint" />
          </mxGeometry>
        </mxCell>
        <mxCell id="iJSi-uQUxxu9UWR6ey4F-53" value="" style="edgeStyle=entityRelationEdgeStyle;fontSize=12;html=1;endArrow=ERoneToMany;rounded=0;exitX=1;exitY=0.5;exitDx=0;exitDy=0;entryX=0;entryY=0.5;entryDx=0;entryDy=0;" parent="1" source="iJSi-uQUxxu9UWR6ey4F-33" target="iJSi-uQUxxu9UWR6ey4F-41" edge="1">
          <mxGeometry width="100" height="100" relative="1" as="geometry">
            <mxPoint x="361" y="400" as="sourcePoint" />
            <mxPoint x="511" y="478" as="targetPoint" />
          </mxGeometry>
        </mxCell>
        <mxCell id="iJSi-uQUxxu9UWR6ey4F-54" value="" style="edgeStyle=entityRelationEdgeStyle;fontSize=12;endArrow=ERoneToMany;rounded=0;exitX=1;exitY=0.5;exitDx=0;exitDy=0;entryX=0;entryY=0.5;entryDx=0;entryDy=0;html=1;" parent="1" source="iJSi-uQUxxu9UWR6ey4F-43" target="iJSi-uQUxxu9UWR6ey4F-48" edge="1">
          <mxGeometry width="100" height="100" relative="1" as="geometry">
            <mxPoint x="381" y="600" as="sourcePoint" />
            <mxPoint x="531" y="678" as="targetPoint" />
          </mxGeometry>
        </mxCell>
        <mxCell id="iJSi-uQUxxu9UWR6ey4F-55" value="" style="edgeStyle=entityRelationEdgeStyle;fontSize=12;html=1;endArrow=ERoneToMany;rounded=0;exitX=1;exitY=0.769;exitDx=0;exitDy=0;entryX=0;entryY=0.5;entryDx=0;entryDy=0;exitPerimeter=0;" parent="1" source="iJSi-uQUxxu9UWR6ey4F-28" target="iJSi-uQUxxu9UWR6ey4F-49" edge="1">
          <mxGeometry width="100" height="100" relative="1" as="geometry">
            <mxPoint x="201" y="330" as="sourcePoint" />
            <mxPoint x="351" y="408" as="targetPoint" />
          </mxGeometry>
        </mxCell>
        <mxCell id="rWiqySbGo-L3BaN7DvV0-4" value="" style="endArrow=none;html=1;rounded=0;" edge="1" parent="1">
          <mxGeometry width="50" height="50" relative="1" as="geometry">
            <mxPoint x="216" y="465" as="sourcePoint" />
            <mxPoint x="216" y="473" as="targetPoint" />
          </mxGeometry>
        </mxCell>
        <mxCell id="rWiqySbGo-L3BaN7DvV0-5" value="" style="endArrow=none;html=1;rounded=0;" edge="1" parent="1">
          <mxGeometry width="50" height="50" relative="1" as="geometry">
            <mxPoint x="564" y="275" as="sourcePoint" />
            <mxPoint x="564" y="283" as="targetPoint" />
          </mxGeometry>
        </mxCell>
        <mxCell id="rWiqySbGo-L3BaN7DvV0-6" value="" style="endArrow=none;html=1;rounded=0;" edge="1" parent="1">
          <mxGeometry width="50" height="50" relative="1" as="geometry">
            <mxPoint x="223" y="282" as="sourcePoint" />
            <mxPoint x="223" y="290" as="targetPoint" />
          </mxGeometry>
        </mxCell>
        <mxCell id="rWiqySbGo-L3BaN7DvV0-7" value="" style="endArrow=none;html=1;rounded=0;" edge="1" parent="1">
          <mxGeometry width="50" height="50" relative="1" as="geometry">
            <mxPoint x="228" y="275" as="sourcePoint" />
            <mxPoint x="228" y="283" as="targetPoint" />
          </mxGeometry>
        </mxCell>
      </root>
    </mxGraphModel>
  </diagram>
</mxfile>
